<?xml version="1.0" encoding="utf-8"?>
<!-- Generator: Adobe Illustrator 19.0.0, SVG Export Plug-In . SVG Version: 6.00 Build 0)  -->
<svg version="1.1" id="Layer_1" xmlns="http://www.w3.org/2000/svg" xmlns:xlink="http://www.w3.org/1999/xlink" x="0px" y="0px"
	 viewBox="0 0 50 50" style="enable-background:new 0 0 50 50;" xml:space="preserve">
<style type="text/css">
	.st0{display:none;}
	.st1{display:none;fill:#A1A1A1;}
	.st2{display:none;fill:#EAE5E5;}
	.st3{fill:#A1A1A1;}
</style>
<image style="display:none;overflow:visible;" width="1024" height="808" xlink:href="../../../../../Users/tanja/Desktop/cilpbord.jpg"  transform="matrix(7.982571e-002 0 0 7.690439e-002 -6.8658 -5.625)">
</image>
<rect class="st0" width="50" height="50"/>
<path class="st1" d="M36.6,8c-0.1-0.9-1.1-0.9-1.1-0.9c-3.2,0.2-4.4-1.8-5.7-3.5c-1.4-1.7-2.9-1.3-2.9-1.3h-2.7c0,0-2.1-0.3-3.3,1.4
	c-2.6,3.9-4.7,3.4-5.7,3.4c-1,0-1,1-1,1v3.6c0.1,1.1,1.2,1.1,1.2,1.1s19.7,0,20.4-0.1c0.7-0.1,0.9-0.9,0.9-0.9S36.7,8.8,36.6,8z
	 M25.5,7.4c-1,0-1.8-0.8-1.8-1.8c0-1,0.8-1.8,1.8-1.8s1.8,0.8,1.8,1.8C27.3,6.6,26.5,7.4,25.5,7.4z"/>
<path class="st1" d="M40.7,9.3h-1.6c0.1,1.1,0.1,4.7,0.1,4.7s-0.1,0.9-1.1,1c-0.9,0.1-25,0.1-25,0.1s-1.3,0-1.5-1.3V9.4
	c0,0,0-0.1,0-0.2h-1.7c-1,0-1.8,0.8-1.8,1.8v34.9c0,1,0.8,1.8,1.8,1.8h30.6c1,0,1.8-0.8,1.8-1.8V11.1C42.5,10.1,41.7,9.3,40.7,9.3z
	 M12.3,19.8L12.3,19.8z"/>
<rect x="13.6" y="21.2" class="st2" width="23.1" height="2.4"/>
<rect x="13.5" y="26.7" class="st2" width="23.1" height="2.4"/>
<rect x="13.4" y="32.1" class="st2" width="23.1" height="2.4"/>
<path class="st3" d="M43.3,10v35.3c0,1-0.8,1.8-1.8,1.8H14.3c-1,0-1.8-0.8-1.8-1.8v-1.2h25c1,0,1.8-0.8,1.8-1.8V8.2h2.1
	C42.5,8.2,43.3,9,43.3,10z"/>
<path class="st3" d="M36.5,3.8H9.3c-1,0-1.8,0.8-1.8,1.8V41c0,1,0.8,1.8,1.8,1.8h27.2c1,0,1.8-0.8,1.8-1.8V5.7
	C38.3,4.7,37.5,3.8,36.5,3.8z M25.7,31.8c0,0.5-0.4,0.8-0.8,0.8H12.7c-0.5,0-0.8-0.4-0.8-0.8v-0.3c0-0.5,0.4-0.8,0.8-0.8h12.2
	c0.5,0,0.8,0.4,0.8,0.8V31.8z M33.3,22.6c0,0.5-0.4,0.8-0.8,0.8h-20c-0.5,0-0.8-0.4-0.8-0.8v-0.3c0-0.5,0.4-0.8,0.8-0.8h20
	c0.5,0,0.8,0.4,0.8,0.8V22.6z M33.3,13.7c0,0.5-0.4,0.8-0.8,0.8h-20c-0.5,0-0.8-0.4-0.8-0.8v-0.3c0-0.5,0.4-0.8,0.8-0.8h20
	c0.5,0,0.8,0.4,0.8,0.8V13.7z"/>
<path class="st2" d="M40.1,44.3H5.6c-0.9,0-1.6-0.7-1.6-1.6V2.3c0-0.9,0.7-1.6,1.6-1.6h34.5c0.9,0,1.6,0.7,1.6,1.6v40.5
	C41.7,43.6,41,44.3,40.1,44.3z"/>
</svg>
