<?xml version="1.0" encoding="utf-8"?>
<!-- Generator: Adobe Illustrator 19.0.0, SVG Export Plug-In . SVG Version: 6.00 Build 0)  -->
<svg version="1.1" id="Layer_1" xmlns="http://www.w3.org/2000/svg" xmlns:xlink="http://www.w3.org/1999/xlink" x="0px" y="0px"
	 viewBox="0 0 100 100" style="enable-background:new 0 0 100 100;" xml:space="preserve">
<style type="text/css">
	.st0{fill:#4B4B4B;}
</style>
<path class="st0" d="M96.1,12.5c-0.5-0.7-1.3-1.2-2.3-1.2H68V6.7c0,0-1.3-4.8-5.5-5.3s-23.3,0-23.3,0S34,2.3,33.3,7
	c0,1.7-0.1,3.2-0.1,4.3H8.3c-0.6,0-1.1,0.2-1.6,0.5c-1.2,0.6-2.1,1.8-2.1,3.2v2.5c0,2,1.6,3.6,3.6,3.6h4.1
	C13.2,35.7,15.6,82.3,16,89c0.5,8,8.7,11,8.7,11l52.8-1.2c8.5-2.8,8.2-10,8.2-10l0.3-3.2l3.3-64.5h4.3c2,0,3.6-1.6,3.6-3.6v-2.5
	C97.2,14.1,96.8,13.2,96.1,12.5z M77.4,21.2C76.9,32.4,74.6,81,74.2,85c-0.5,4.5-3.7,3.5-3.7,3.5S35.2,89.2,31,89.2
	s-3.8-4.8-3.8-4.8l-3.7-63.2H77.4z"/>
<path class="st0" d="M53,84.3h-4c-1.6,0-2.8-1.3-2.8-2.8V28.2c0-1.6,1.3-2.8,2.8-2.8h4c1.6,0,2.8,1.3,2.8,2.8v53.3
	C55.8,83.1,54.6,84.3,53,84.3z"/>
<path class="st0" d="M37.7,84.3h-4c-1.6,0-2.8-1.3-2.8-2.8V28.2c0-1.6,1.3-2.8,2.8-2.8h4c1.6,0,2.8,1.3,2.8,2.8v53.3
	C40.5,83.1,39.2,84.3,37.7,84.3z"/>
<path class="st0" d="M68.3,84h-4c-1.6,0-2.8-1.3-2.8-2.8V27.8c0-1.6,1.3-2.8,2.8-2.8h4c1.6,0,2.8,1.3,2.8,2.8v53.3
	C71.2,82.7,69.9,84,68.3,84z"/>
</svg>
