<?xml version="1.0" encoding="utf-8"?>
<!-- Generator: Adobe Illustrator 19.0.0, SVG Export Plug-In . SVG Version: 6.00 Build 0)  -->
<svg version="1.1" id="Layer_1" xmlns="http://www.w3.org/2000/svg" xmlns:xlink="http://www.w3.org/1999/xlink" x="0px" y="0px"
	 viewBox="0 0 50 50" style="enable-background:new 0 0 50 50;" xml:space="preserve">
<style type="text/css">
	.st0{display:none;fill:#070707;}
	.st1{fill:#FFFFFF;}
</style>
<path id="XMLID_3_" class="st0" d="M1.4,19.5L13,31c0,0,1.5,2.1,5-1.4c3.4-3.4,10.3-10.3,10.3-10.3s2.5-2.7,5.3,0l2.6,2.3
	c0,0,2.2,3.2,5.3,0s6.6-6.7,6.6-6.7L48,9.7c0,0,0.4-3.1-2.6-3.1s-41.2,0-41.2,0S1.5,6.9,1.5,9.2S1.4,19.5,1.4,19.5z"/>
<path id="XMLID_2_" class="st0" d="M1.8,27.2l10.4,10.6c0.6,0.6,1.4,1.1,2.2,1.2c0.7,0.1,1.5,0,2.2-0.7c2.1-2.1,11.9-12.3,11.9-12.3
	s2.3-2.2,4.3,0s3.7,4,3.7,4s1.8,2.1,4,0s7.4-7.6,7.4-7.6L48,42.4c0,0,0.8,3.1-4.4,3.1s-39.6,0-39.6,0s-2.3-0.3-2.3-2.6
	C1.7,40.5,1.8,27.2,1.8,27.2z"/>
<path id="XMLID_12_" class="st1" d="M48,11.3V18H2v-6.8C2,8.7,3.7,7,6.3,7h37C45.8,7,48,8.7,48,11.3z"/>
<path id="XMLID_13_" class="st1" d="M2,24h46v16.8c0,2.5-2.2,4.2-4.7,4.2h-37C3.7,45,2,43.4,2,40.8V24z"/>
</svg>
