<?xml version="1.0" encoding="utf-8"?>
<!-- Generator: Adobe Illustrator 19.0.0, SVG Export Plug-In . SVG Version: 6.00 Build 0)  -->
<svg version="1.1" id="Layer_1" xmlns="http://www.w3.org/2000/svg" xmlns:xlink="http://www.w3.org/1999/xlink" x="0px" y="0px"
	 viewBox="0 0 110 50" style="enable-background:new 0 0 110 50;" xml:space="preserve">
<style type="text/css">
	.st0{display:none;fill:#020202;}
	.st1{font-family:'Lobster-Regular';}
	.st2{font-size:35.7778px;}
	.st3{fill:#FFFFFF;}
</style>
<text id="XMLID_1_" transform="matrix(1 0 0 1 8.8091 36.2148)" class="st0 st1 st2">famous</text>
<g id="Layer_2">
</g>
<g id="XMLID_6_">
	<path id="XMLID_9_" class="st3" d="M18.9,18.3l-2.6-0.1l0.9-3.7c0,0,1.1-3,3.3-1.6c0.4,0.5,0.3,1.8,0.3,1.8l1.8-0.1
		c0,0,1.1-4.9-4.3-5.3c-5.3-0.4-6.2,5.4-6.4,6.4c-0.2,0.8-3.2,14.9-4.3,20.2c-1.6,0.4-3.9,1.1-4.8,2c-1.3,1.4-2.5,4.6,0.3,6.3
		s6.7,0.9,8.3-2.9c1.7-5.2,4.9-21.7,4.9-21.7l2.6-0.1L18.9,18.3z M4.8,42c-1.8-0.2-1.9-1.9-0.3-3.5c0.7-0.7,1.8-1.1,2.8-1.3
		c-0.1,0.5-0.2,0.9-0.2,0.9S6.5,42.2,4.8,42z"/>
	<path id="XMLID_12_" class="st3" d="M108.3,17.3l-5.4,0.7c0,0-2,6-4.1,10.5c-1.1,0.4-2.3,1.9-2.2,3.6c0,0,0,0.1,0,0.1
		c-0.3,0.3-0.6,0.6-0.8,0.8c-2.8,1.5-2.5-1.9-2.1-3.2c0.4-1.3,2.3-11.6,2.3-11.6H91l-2.3,11.4c0,0-0.9,3.9-3.2,3.6
		c-1.3-0.6-0.8-1.8-0.4-3.7c0.3-1.8,2.2-11.2,2.2-11.2l-5,0l-1,4.9c-3.1,1.2-3.3,0.6-3.3,0.6c0-4.4-1.9-5.2-3.8-5.5
		c-1.8-0.4-4.5,0.5-6,1.7c-1.5,1.2-3.4,3.9-4,6.6c-0.5,2-0.6,3.2-0.6,4.5c0,0,0,0,0,0c-1.3,1.8-1.1,1.6-1.6,1.8s-2.5,0.9-2.4-1.8
		l1.6-6.6c0,0,1.3-4.6-2.2-6c-3.8-0.9-6.1,2.1-6.5,2.9c0,0-0.4-3.8-4.7-3.1c0,0-2.6,0.5-3.4,2.1l0.4-1.9l-5.2,0.1l-2.3,10.9
		c0,0-0.8,3.8-3.1,3.9s-1.1-3.8-1.1-3.8l2.4-11.1l-5.3,0.1L30,19.8c-0.1-0.6-0.7-2-4-1.6c-4.3,0.5-7,6.7-7.5,8.3s-1.3,7.9,2.1,9.5
		s6.6-1.3,7.4-2.9c0,0,0.1,2.9,2.7,3.3s5-1.1,5.5-2.1l-0.4,2.1l5.1-0.1l2.5-11.5c0,0,0.8-3,2.5-3.3s1.6,1.4,1.4,2.5S44.7,36,44.7,36
		H50l2.3-11.3c0,0,1.1-3.3,2.7-3.3s1.5,2.1,1.3,3s-1.4,6.4-1.4,6.4s-0.7,3.8,1.6,5s4.8,0.1,5.4-0.3s2.1-1.9,2.1-2.3c0,0,0,0,0-0.1
		c0.6,1.8,2.3,2.9,3.8,3.1c1.6,0.2,3.5,0.2,5.9-1.5c2.5-1.7,3.5-5.4,3.8-6.5c0.2-0.6,0.3-1.8,0.4-2.7c1.2-0.2,2.3-0.7,3.1-1
		l-1.2,5.6c0,0-1.1,4.6,1.8,5.8c2.9,1.2,6-0.7,6.9-3c0,0,0.3,3.3,2.9,3.3c2.6,0.1,3.6-0.3,5.4-2.1c0.1-0.1,0.3-0.3,0.4-0.5
		c0.7,1.3,2,2.4,3.4,2.5c2.1,0.2,4.2-0.1,5.8-1.3s2.3-1.8,2.5-5.1S108.3,19.3,108.3,17.3z M27.9,30.1c0,0-1.4,3.6-3.4,2.8
		s-1.4-2.9-1.1-5.2s2-5.7,2.9-6.5c0.8-0.7,2.7-1.5,3.3,0.3L27.9,30.1z M73.2,31.1c-1.3,2-2.3,2.4-3.6,1.8c-1.3-1-0.4-5.4-0.3-5.9
		s1.5-5.6,3.7-6.8c2.3-0.8,2,2,2,2s-0.9,0.3-1.1,1.6c-0.2,1.5,0.8,1.8,1,1.9C74.7,27.1,74.2,29.7,73.2,31.1z M103.2,32.7
		c-1.2,0.9-4,2-4.6-0.9c0.1-0.1,0.1-0.2,0.2-0.3c0.5,0.2,1.8,0.4,2.2-0.9c0.3-1,0-1.7-0.6-2c1.5-3,2.9-6.1,2.9-6.9l0.3,5.1
		C103.6,26.7,104.4,31.7,103.2,32.7z"/>
</g>
</svg>
