<?xml version="1.0" encoding="utf-8"?>
<!-- Generator: Adobe Illustrator 19.0.0, SVG Export Plug-In . SVG Version: 6.00 Build 0)  -->
<svg version="1.1" id="Layer_1" xmlns="http://www.w3.org/2000/svg" xmlns:xlink="http://www.w3.org/1999/xlink" x="0px" y="0px"
	 viewBox="0 0 50 50" style="enable-background:new 0 0 50 50;" xml:space="preserve">
<style type="text/css">
	.st0{fill:#FFFFFF;}
</style>
<image style="display:none;overflow:visible;enable-background:new    ;" width="200" height="200" xlink:href="37844E14.png"  transform="matrix(0.26 0 0 0.26 -1 -1)">
</image>
<path class="st0" d="M40.8,34.3V19.4c0,0-1.8-10.6-11.3-12.4h-0.1V5.3c0-1.9-1.5-3.4-3.4-3.4s-3.4,1.5-3.4,3.4V7
	c-0.9,0.1-9.3,1.7-11.4,12.7V34l-4.6,4.6V41h15.2h8.7h15v-2.2L40.8,34.3z"/>
<path class="st0" d="M30.8,43.3c-0.1,2.6-2.2,4.8-4.7,4.8c-2.6,0-4.7-2.1-4.7-4.8H30.8z"/>
</svg>
