<?xml version="1.0" encoding="utf-8"?>
<!-- Generator: Adobe Illustrator 19.0.0, SVG Export Plug-In . SVG Version: 6.00 Build 0)  -->
<svg version="1.1" id="Layer_1" xmlns="http://www.w3.org/2000/svg" xmlns:xlink="http://www.w3.org/1999/xlink" x="0px" y="0px"
	 viewBox="0 0 50 50" style="enable-background:new 0 0 50 50;" xml:space="preserve">
<style type="text/css">
	.st0{fill:#FA4B70;}
</style>
<image style="display:none;overflow:visible;enable-background:new    ;" width="200" height="200" xlink:href="BD29DD8A.png"  transform="matrix(0.25 0 0 0.25 0 0)">
</image>
<g>
	<path class="st0" d="M24.8,10.9c8,0,14.5,6.5,14.5,14.5s-6.5,14.5-14.5,14.5s-14.5-6.5-14.5-14.5S16.8,10.9,24.8,10.9 M24.8,5.9
		C14,5.9,5.3,14.6,5.3,25.4S14,44.9,24.8,44.9s19.5-8.7,19.5-19.5S35.5,5.9,24.8,5.9L24.8,5.9z"/>
</g>
<path class="st0" d="M24.6,30.4L24.6,30.4c-1.1,0-2-0.9-2-2V15.7c0-1.1,0.9-2,2-2l0,0c1.1,0,2,0.9,2,2v12.6
	C26.6,29.5,25.7,30.4,24.6,30.4z"/>
<circle class="st0" cx="24.8" cy="34.8" r="2.1"/>
</svg>
