<?xml version="1.0" encoding="utf-8"?>
<!-- Generator: Adobe Illustrator 19.0.0, SVG Export Plug-In . SVG Version: 6.00 Build 0)  -->
<svg version="1.1" id="Layer_1" xmlns="http://www.w3.org/2000/svg" xmlns:xlink="http://www.w3.org/1999/xlink" x="0px" y="0px"
	 viewBox="0 0 50 50" style="enable-background:new 0 0 50 50;" xml:space="preserve">
<style type="text/css">
	.st0{fill:#3A3A3A;}
</style>
<image style="display:none;overflow:visible;" width="512" height="512" xlink:href="../../../../Users/tanja/Desktop/login.png"  transform="matrix(9.218757e-002 0 0 9.218757e-002 1.8 1.8)">
</image>
<path class="st0" d="M9,16.3h3.6l0.2-8.8c0,0-0.1-2,1.8-2s25.4,0,25.4,0s1.8,0.3,1.8,1.8s0,35.4,0,35.4s0.4,2.7-1.5,2.8
	c-1.9,0.1-25.5,0-25.5,0s-2.2,0-2.2-1.9c0-1.9,0-8.8,0-8.8H9.1L9,43.5c0,0,0.5,5.5,5.3,5.5s25.3,0,25.3,0s5.7,0.2,5.7-6.1
	s0-35.5,0-35.5s0.7-4.3-4.4-5.5H13.6c0,0-4.5,0.8-4.5,5.3S9,16.3,9,16.3z"/>
<path class="st0" d="M16.3,30.9v5.5c0,0-0.1,2.1,2.3,0.3s13.1-11.3,13.1-11.3L18.1,13.6c0,0-1.8-0.7-1.8,1.7s0.1,4.8,0.1,4.8L5.1,20
	c0,0-1.5,0.3-1.5,1.6s0.1,7.3,0.1,7.3s0,1.8,1.2,1.8S16.3,30.9,16.3,30.9z"/>
</svg>
